<svg width="260" height="260" fill="none" xmlns="http://www.w3.org/2000/svg"><rect width="260" height="260" rx="80" fill="#5C62EC"/><path d="M109.215 182l-7.696-25.16h-38.48L55.343 182H31.219L68.515 75.884h27.38L133.339 182h-24.124zm-13.024-43.956l-7.696-24.568a554.819 554.819 0 00-1.924-6.364 756.78 756.78 0 01-2.368-7.844c-.79-2.664-1.43-4.983-1.924-6.956-.494 1.973-1.184 4.44-2.072 7.4A458.314 458.314 0 0177.839 108c-.69 2.565-1.234 4.391-1.628 5.476l-7.548 24.568H96.19zM146.722 182V76.328h66.748v18.5h-44.4v22.052h8.88c9.966 0 18.106 1.381 24.42 4.144 6.414 2.763 11.15 6.561 14.208 11.396 3.059 4.835 4.588 10.36 4.588 16.576 0 10.459-3.502 18.599-10.508 24.42-6.906 5.723-17.957 8.584-33.152 8.584h-30.784zm22.348-18.352h7.548c6.808 0 12.136-1.085 15.984-3.256 3.947-2.171 5.92-5.969 5.92-11.396 0-5.624-2.121-9.324-6.364-11.1-4.242-1.776-10.014-2.664-17.316-2.664h-5.772v28.416z" fill="#fff"/></svg>