<svg width="23" height="23" fill="none" xmlns="http://www.w3.org/2000/svg"><path d="M2.214 21l1.011-4.695A9.968 9.968 0 116.837 19.7L2.214 21z" fill="#25D366" stroke="#fff" stroke-width="2"/><path d="M14.493 12.343c-.217-.145-.434-.217-.65.072l-.867 1.156c-.217.144-.361.216-.65.072-1.084-.578-2.6-1.228-3.9-3.395-.073-.289.072-.433.216-.578l.65-1.01c.145-.145.072-.29 0-.434L8.425 6.13c-.216-.578-.433-.506-.65-.506h-.578c-.144 0-.433.073-.722.362-1.589 1.589-.939 3.828.217 5.272.216.29 1.661 2.89 4.767 4.262 2.311 1.011 2.817.867 3.467.722.794-.072 1.59-.722 1.95-1.372.072-.217.434-1.156.145-1.3" fill="#fff"/></svg>