<svg width="505" height="285" fill="none" xmlns="http://www.w3.org/2000/svg"><path d="M49.097 14.028C49.097 6.28 55.377 0 63.125 0h380.754c7.747 0 14.028 6.28 14.028 14.028v261.518a2.005 2.005 0 01-2.004 2.004H51.101a2.004 2.004 0 01-2.004-2.004V14.028z" fill="#1A202C"/><path d="M51.602 13.527c0-6.087 4.935-11.022 11.022-11.022H444.38c6.087 0 11.022 4.935 11.022 11.022v253.502h-403.8V13.527z" fill="#000"/><path fill="#fff" d="M62.123 16.533h381.255v239.474H62.123z"/><path d="M0 276.548c0-.553.449-1.002 1.002-1.002h502.996c.553 0 1.002.449 1.002 1.002v2.004H0v-2.004z" fill="#A3ACB1"/><path d="M0 276.548c0-.553.449-1.002 1.002-1.002h502.996c.553 0 1.002.449 1.002 1.002v2.004H0v-2.004z" fill="url(#paint0_linear_550_89)"/><path d="M0 278.552h505l-10.197 2.056a200.35 200.35 0 01-39.619 3.956H49.052c-14.622 0-29.2-1.6-43.473-4.772L0 278.552z" fill="#647279"/><path d="M0 278.552h505l-10.197 2.056a200.35 200.35 0 01-39.619 3.956H49.052c-14.622 0-29.2-1.6-43.473-4.772L0 278.552z" fill="url(#paint1_linear_550_89)"/><path fill-rule="evenodd" clip-rule="evenodd" d="M215.443 275.546c.258 1.679-.992 3.006 2.99 3.006h68.635c3.982 0 2.732-1.327 2.99-3.006h-74.615z" fill="#96A1A8"/><path fill-rule="evenodd" clip-rule="evenodd" d="M215.443 275.546c.258 1.679-.992 3.006 2.99 3.006h68.635c3.982 0 2.732-1.327 2.99-3.006h-74.615z" fill="url(#paint2_linear_550_89)"/><defs><linearGradient id="paint0_linear_550_89" x1="0" y1="280.055" x2="505" y2="280.055" gradientUnits="userSpaceOnUse"><stop stop-color="#0D1012"/><stop offset=".03" stop-color="#CAD4DB"/><stop offset=".063" stop-color="#242729"/><stop offset=".134" stop-color="#A3ACB1"/><stop offset=".866" stop-color="#A3ACB1"/><stop offset=".942" stop-color="#242729"/><stop offset=".971" stop-color="#CAD4DB"/><stop offset=".996" stop-color="#0D1012"/></linearGradient><linearGradient id="paint1_linear_550_89" x1="252.5" y1="275.546" x2="252.5" y2="284.564" gradientUnits="userSpaceOnUse"><stop stop-color="#7A7F83"/><stop offset="1" stop-color="#0B0B0E"/></linearGradient><linearGradient id="paint2_linear_550_89" x1="219.184" y1="277.371" x2="287.82" y2="277.371" gradientUnits="userSpaceOnUse"><stop stop-color="#3C3C3C"/><stop offset=".318" stop-color="#3C3C3C" stop-opacity="0"/><stop offset=".661" stop-color="#3C3C3C" stop-opacity="0"/><stop offset="1" stop-color="#444"/></linearGradient></defs></svg>