<svg width="286" height="161" fill="none" xmlns="http://www.w3.org/2000/svg"><path d="M27.758 7.93A7.93 7.93 0 0135.688 0h215.268a7.93 7.93 0 017.931 7.93v147.856c0 .626-.507 1.133-1.133 1.133H28.891a1.133 1.133 0 01-1.133-1.133V7.931z" fill="#1A202C"/><path d="M29.174 7.648a6.232 6.232 0 016.232-6.232H251.24a6.231 6.231 0 016.231 6.232V150.97H29.174V7.648z" fill="#000"/><path fill="#fff" d="M35.122 9.347h215.551v135.392H35.122z"/><path d="M0 156.352c0-.312.254-.566.566-.566h284.38c.313 0 .567.254.567.566v1.133H0v-1.133z" fill="#A3ACB1"/><path d="M0 156.352c0-.312.254-.566.566-.566h284.38c.313 0 .567.254.567.566v1.133H0v-1.133z" fill="url(#paint0_linear_235_559)"/><path d="M0 157.485h285.513l-5.765 1.163a113.31 113.31 0 01-22.399 2.236H27.732a113.26 113.26 0 01-24.578-2.698L0 157.485z" fill="#647279"/><path d="M0 157.485h285.513l-5.765 1.163a113.31 113.31 0 01-22.399 2.236H27.732a113.26 113.26 0 01-24.578-2.698L0 157.485z" fill="url(#paint1_linear_235_559)"/><path fill-rule="evenodd" clip-rule="evenodd" d="M121.805 155.786c.146.949-.561 1.699 1.691 1.699H162.3c2.252 0 1.545-.75 1.691-1.699h-42.186z" fill="#96A1A8"/><path fill-rule="evenodd" clip-rule="evenodd" d="M121.805 155.786c.146.949-.561 1.699 1.691 1.699H162.3c2.252 0 1.545-.75 1.691-1.699h-42.186z" fill="url(#paint2_linear_235_559)"/><defs><linearGradient id="paint0_linear_235_559" x1="0" y1="158.335" x2="285.513" y2="158.335" gradientUnits="userSpaceOnUse"><stop stop-color="#0D1012"/><stop offset=".03" stop-color="#CAD4DB"/><stop offset=".063" stop-color="#242729"/><stop offset=".134" stop-color="#A3ACB1"/><stop offset=".866" stop-color="#A3ACB1"/><stop offset=".942" stop-color="#242729"/><stop offset=".971" stop-color="#CAD4DB"/><stop offset=".996" stop-color="#0D1012"/></linearGradient><linearGradient id="paint1_linear_235_559" x1="142.756" y1="155.786" x2="142.756" y2="160.884" gradientUnits="userSpaceOnUse"><stop stop-color="#7A7F83"/><stop offset="1" stop-color="#0B0B0E"/></linearGradient><linearGradient id="paint2_linear_235_559" x1="123.921" y1="156.818" x2="162.726" y2="156.818" gradientUnits="userSpaceOnUse"><stop stop-color="#3C3C3C"/><stop offset=".318" stop-color="#3C3C3C" stop-opacity="0"/><stop offset=".661" stop-color="#3C3C3C" stop-opacity="0"/><stop offset="1" stop-color="#444"/></linearGradient></defs></svg>