<svg width="260" height="260" fill="none" xmlns="http://www.w3.org/2000/svg"><rect width="260" height="260" rx="80" fill="#FFBF00"/><path d="M25.287 87.531h32.455c6.344 0 11.857.944 16.54 2.832 4.681 1.888 8.288 4.683 10.818 8.383 2.567 3.701 3.851 8.27 3.851 13.707 0 4.72-.736 8.666-2.209 11.838-1.473 3.172-3.53 5.796-6.174 7.873-2.605 2.039-5.645 3.719-9.119 5.041l-6.513 3.682H37.69l-.113-15.35h20.164c2.53 0 4.626-.453 6.287-1.359 1.662-.907 2.908-2.19 3.739-3.852.868-1.699 1.302-3.719 1.302-6.06 0-2.379-.434-4.418-1.302-6.118-.869-1.699-2.153-3.002-3.852-3.908-1.661-.906-3.72-1.359-6.174-1.359H45.168V170h-19.88V87.531zM70.43 170l-18.24-36.477 21.07-.113 18.466 35.74v.85H70.43zm93.876-32.229v14.727h-59.36l-1.132-11.668 33.134-53.299h15.067l-16.369 26.791-13.594 23.449h42.254zm-8.326-50.24V170h-19.088V87.531h19.088zm79.942 33.701v15.067c0 5.928-.698 11.083-2.095 15.463-1.36 4.38-3.323 8.005-5.891 10.875-2.53 2.87-5.551 5.003-9.063 6.4-3.511 1.397-7.382 2.096-11.611 2.096-3.398 0-6.57-.434-9.516-1.303-2.945-.906-5.607-2.266-7.986-4.078-2.341-1.85-4.361-4.154-6.06-6.91-1.7-2.757-3.002-6.004-3.909-9.742-.906-3.776-1.359-8.043-1.359-12.801v-15.067c0-5.966.68-11.12 2.039-15.462 1.397-4.381 3.38-8.006 5.947-10.876 2.568-2.87 5.608-5.003 9.12-6.4 3.511-1.397 7.382-2.096 11.611-2.096 3.398 0 6.551.454 9.459 1.36a23.895 23.895 0 017.986 4.078c2.379 1.812 4.399 4.097 6.061 6.853 1.699 2.757 3.002 6.023 3.908 9.799.906 3.739 1.359 7.987 1.359 12.744zm-19.088 17.389v-19.824c0-2.643-.151-4.947-.453-6.91-.264-1.964-.679-3.625-1.246-4.985-.528-1.359-1.189-2.454-1.982-3.285-.793-.868-1.699-1.491-2.719-1.869-.982-.415-2.077-.623-3.285-.623-1.511 0-2.87.321-4.078.963-1.171.604-2.172 1.586-3.002 2.945-.831 1.36-1.473 3.172-1.926 5.438-.415 2.265-.623 5.041-.623 8.326v19.824c0 2.681.132 5.022.396 7.024.302 1.963.718 3.643 1.247 5.041.566 1.359 1.246 2.473 2.039 3.341a7.177 7.177 0 002.718 1.813c1.02.377 2.134.566 3.342.566 1.473 0 2.794-.302 3.965-.906 1.171-.604 2.171-1.586 3.002-2.945.868-1.397 1.51-3.229 1.926-5.494.453-2.304.679-5.117.679-8.44z" fill="#fff"/></svg>