<svg width="199" height="46" fill="none" xmlns="http://www.w3.org/2000/svg"><g clip-path="url(#clip0_39_7)"><path d="M36.723 33.864a18.12 18.12 0 01-2.164 3.033l.022.023-.766.768a17.914 17.914 0 01-12.79 5.323 17.918 17.918 0 01-12.752-5.283 17.918 17.918 0 01-5.284-12.753c0-.356.01-.717.032-1.076.003-.049.005-.098.01-.15v-.014l.007-.099v-.017c.005-.073.013-.15.02-.223.005-.062.01-.126.017-.192l.03-.29c.007-.056.012-.12.022-.182l.032-.258.022-.147a6.12 6.12 0 01.04-.26c.006-.047.016-.1.024-.152a11.228 11.228 0 01.059-.32l.034-.18c.015-.07.027-.14.044-.213.103-.491.231-.985.376-1.466l.005-.012c.017-.064.037-.128.059-.19l.051-.164c.104-.315.217-.634.337-.94.017-.043.034-.09.052-.133.02-.047.036-.096.058-.148l.08-.191c.019-.05.043-.106.068-.16l.01-.025c.034-.073.066-.15.1-.223a17.783 17.783 0 011.714-2.984l.104-.14c.071-.099.142-.197.216-.29.035-.044.071-.094.108-.14.079-.104.16-.204.238-.302.047-.057.094-.118.143-.175l.142-.17c.047-.056.099-.115.148-.171l.17-.194-2.118-2.12A20.892 20.892 0 000 24.972 20.884 20.884 0 006.158 39.84a20.884 20.884 0 0014.867 6.158 20.881 20.881 0 0014.902-6.195 21.084 21.084 0 002.977-3.76l-2.181-2.179z" fill="#FFBF00"/><path d="M9.813 36.188a15.758 15.758 0 0011.212 4.644 17.605 17.605 0 00.595-.01h.01l.292-.014.233-.015.106-.008.054-.004c.07-.005.142-.013.216-.02a5.02 5.02 0 00.184-.017l.12-.013.081-.01.158-.019c.196-.025.388-.052.577-.084.054-.01.105-.02.157-.026l.017-.003.123-.022.02-.005c.054-.01.108-.02.162-.032.142-.027.282-.056.42-.088.093-.02.186-.045.28-.067l.012-.002a.76.76 0 00.071-.017c.07-.017.13-.035.194-.05.054-.014.106-.026.155-.041.044-.013.084-.022.12-.035.037-.01.067-.017.094-.027l.022-.007c.04-.01.078-.022.118-.034a3.87 3.87 0 00.18-.057l.13-.04c.132-.043.265-.088.395-.134l.105-.037.027-.01.128-.047.182-.068c.049-.02.093-.035.135-.052.081-.032.155-.061.228-.093l.221-.094c.07-.03.138-.059.202-.088l.105-.047.032-.014.163-.077c.334-.16.663-.329.98-.51.034-.02.066-.04.1-.057.074-.042.148-.086.219-.128l.363-.223c.16-.103.327-.211.506-.334l.148-.103.02-.015.11-.079.01-.007.08-.06.01-.006c.047-.032.091-.067.136-.101.051-.037.1-.076.147-.113.034-.027.061-.05.091-.071l.034-.027c.05-.04.101-.079.15-.12l.152-.123.013-.01c.096-.079.189-.16.285-.241.03-.025.056-.05.086-.076l-2.12-2.122a12.819 12.819 0 01-8.337 3.063c-7.093 0-12.865-5.773-12.865-12.866a12.78 12.78 0 013.807-9.137 12.979 12.979 0 014.023-2.705l-2.25-2.25a15.923 15.923 0 00-3.895 2.845 15.731 15.731 0 00-4.684 11.244c0 4.237 1.65 8.219 4.645 11.215z" fill="#766D6E"/><path d="M39.02 21.025a20.884 20.884 0 00-6.158-14.867A20.89 20.89 0 0017.992 0c-5.635 0-10.928 2.198-14.9 6.195a21.12 21.12 0 00-2.979 3.76l2.184 2.184A18.119 18.119 0 014.46 9.105l-.023-.022.767-.769a17.91 17.91 0 0112.79-5.322c4.816 0 9.345 1.876 12.752 5.283a17.914 17.914 0 015.283 12.753c0 .356-.01.72-.032 1.076a38.403 38.403 0 01-.017.26v.017c-.005.074-.012.15-.02.224-.004.061-.01.127-.017.194l-.03.29c-.007.056-.011.117-.021.181l-.032.258-.022.145c-.01.084-.025.172-.04.263-.007.047-.017.1-.024.152a11.774 11.774 0 01-.14.712c-.103.492-.231.988-.376 1.467-.02.066-.04.135-.064.204l-.051.164c-.104.317-.217.634-.337.94l-.052.131-.059.148a26.94 26.94 0 00-.078.191c-.02.05-.044.106-.069.16l-.01.024-.1.224a17.782 17.782 0 01-1.714 2.984l-.102.14a18 18 0 01-.216.29 3.29 3.29 0 01-.108.14c-.078.103-.16.204-.238.302-.047.056-.093.118-.142.174a6.429 6.429 0 01-.133.16l-.01.01c-.049.056-.098.115-.15.172l-.17.194 2.118 2.12a20.89 20.89 0 005.446-14.114z" fill="#766D6E"/><path d="M23.027 32.87l2.25 2.25a15.925 15.925 0 003.895-2.845c3.02-3 4.68-6.993 4.68-11.247 0-4.235-1.651-8.219-4.645-11.213a15.755 15.755 0 00-11.613-4.642c-.066 0-.13.002-.197.005h-.007l-.292.015-.234.014-.105.008-.054.005a6.941 6.941 0 00-.214.02c-.064.007-.123.011-.184.019-.044.005-.084.01-.12.012l-.062.008-.02.002a19.154 19.154 0 00-.732.103c-.054.01-.105.017-.157.027l-.017.003-.12.022-.027.005-.157.03a9.2 9.2 0 00-.425.088c-.094.02-.187.044-.28.066l-.013.002a.753.753 0 00-.071.017c-.069.018-.13.035-.194.05l-.155.041c-.044.013-.083.022-.123.035l-.093.027-.022.007a3.995 3.995 0 00-.297.09 3.776 3.776 0 01-.13.04 18.75 18.75 0 00-.396.135l-.103.037-.03.01c-.044.017-.083.03-.122.047a3.79 3.79 0 00-.187.071l-.135.054a7.255 7.255 0 00-.229.093l-.22.094-.202.088-.105.047-.032.015c-.054.024-.108.051-.163.076-.334.16-.663.329-.98.51l-.1.057-.207.12-.228.14c-.047.03-.096.062-.145.091-.162.103-.327.212-.504.334-.046.032-.09.064-.135.094l-.03.02-.115.083-.014.01c-.025.02-.05.036-.076.056l-.01.008c-.047.031-.091.066-.135.1-.052.037-.099.076-.148.113l-.09.071-.035.027-.15.12c-.056.045-.11.092-.164.136a12.364 12.364 0 00-.371.317l2.122 2.122a12.821 12.821 0 018.336-3.065c7.094 0 12.866 5.772 12.866 12.865a12.78 12.78 0 01-3.807 9.137 13.015 13.015 0 01-4.021 2.702z" fill="#FFBF00"/></g><path d="M46.428 29.098v7.109h-1.216v-7.11h1.216zm2.231 0v.976H43v-.976h5.66zm4.138 4.458h-1.85v-.972h1.85c.322 0 .583-.052.781-.156a.974.974 0 00.435-.43 1.38 1.38 0 00.141-.635c0-.224-.047-.434-.141-.63a1.079 1.079 0 00-.435-.478c-.198-.12-.459-.18-.781-.18h-1.475v6.132h-1.225v-7.11h2.7c.55 0 1.017.098 1.401.294.388.192.682.459.884.8.202.339.303.726.303 1.163 0 .459-.101.852-.303 1.181a1.948 1.948 0 01-.884.757c-.384.176-.851.264-1.401.264zm6.213-3.511l-2.124 6.162h-1.284l2.675-7.11h.82l-.087.948zm1.777 6.162l-2.129-6.162-.093-.947h.826l2.685 7.109h-1.289zm-.102-2.637v.972h-3.868v-.972h3.868zm7.385-1.504v.972h-3.775v-.972h3.774zm-3.472-2.968v7.109h-1.226v-7.11h1.226zm4.414 0v7.109H67.79v-7.11h1.22zm6.158 4.795h1.222c-.04.465-.17.88-.391 1.245a2.325 2.325 0 01-.933.854c-.4.209-.887.313-1.46.313a2.89 2.89 0 01-1.186-.235 2.6 2.6 0 01-.903-.673 3.047 3.047 0 01-.577-1.06 4.604 4.604 0 01-.195-1.387v-.59c0-.512.067-.974.2-1.387.137-.414.332-.767.586-1.06.254-.296.558-.522.913-.679A2.99 2.99 0 0173.652 29c.567 0 1.045.104 1.436.313.39.208.693.496.908.864.218.368.352.79.4 1.264h-1.22a2.258 2.258 0 00-.215-.786 1.107 1.107 0 00-.479-.498c-.211-.117-.488-.176-.83-.176-.28 0-.524.052-.732.157a1.383 1.383 0 00-.523.459 2.21 2.21 0 00-.317.747 4.445 4.445 0 00-.102 1.006v.6c0 .358.03.684.092.977.065.29.163.538.293.747.134.208.303.37.508.483.205.114.45.171.737.171.349 0 .63-.055.845-.166.218-.11.383-.272.493-.483.114-.215.19-.477.225-.786zm8.46-4.795v7.109h-1.22v-6.133h-3.16v6.133h-1.22v-7.11h5.6zm7.643 3.359v.39c0 .538-.07 1.02-.21 1.446-.14.426-.34.79-.6 1.089-.257.3-.566.529-.928.688a2.995 2.995 0 01-1.201.235c-.436 0-.835-.078-1.196-.235a2.687 2.687 0 01-.933-.688 3.197 3.197 0 01-.615-1.089 4.528 4.528 0 01-.215-1.445v-.391c0-.537.072-1.017.215-1.44.143-.427.345-.79.605-1.09.264-.302.575-.532.933-.688A2.92 2.92 0 0188.324 29c.44 0 .84.08 1.201.24.362.155.673.385.933.688.26.3.46.662.6 1.089.144.423.215.903.215 1.44zm-1.225.39v-.4c0-.397-.04-.747-.117-1.05a2.156 2.156 0 00-.337-.766 1.409 1.409 0 00-.542-.469 1.605 1.605 0 00-.728-.161c-.27 0-.51.054-.722.161-.212.104-.393.26-.542.469-.147.205-.26.46-.337.767a4.218 4.218 0 00-.117 1.05v.4c0 .397.038.748.117 1.054.078.306.192.565.341.777.153.208.336.366.547.473.212.105.453.157.723.157.273 0 .516-.052.727-.157.212-.107.391-.265.538-.473.146-.212.257-.47.332-.777.078-.306.117-.657.117-1.054zm5.652.709h-1.851v-.972h1.85c.323 0 .583-.052.782-.156a.973.973 0 00.434-.43 1.38 1.38 0 00.142-.635c0-.224-.048-.434-.142-.63a1.079 1.079 0 00-.434-.478c-.2-.12-.46-.18-.782-.18h-1.474v6.132h-1.226v-7.11h2.7c.55 0 1.017.098 1.402.294.387.192.682.459.883.8.202.339.303.726.303 1.163 0 .459-.1.852-.303 1.181a1.948 1.948 0 01-.883.757c-.385.176-.852.264-1.402.264zm7.111-4.458v7.109h-1.216v-7.11h1.216zm2.231 0v.976h-5.66v-.976h5.66zm6.135 2.968v.972h-3.775v-.972h3.775zm-3.472-2.968v7.109h-1.226v-7.11h1.226zm4.414 0v7.109h-1.221v-7.11h1.221zm4.817.947l-2.124 6.162h-1.285l2.676-7.11h.82l-.087.948zm1.777 6.162l-2.129-6.162-.093-.947h.825l2.686 7.109h-1.289zm-.103-2.637v.972h-3.867v-.972h3.867zm6.54-.029h-1.958l-.483-.2c-.537-.17-.949-.427-1.235-.772-.287-.345-.43-.78-.43-1.303 0-.47.104-.865.312-1.187a1.95 1.95 0 01.889-.732c.387-.166.845-.25 1.372-.25h2.388v7.11h-1.231v-6.133h-1.157c-.456 0-.794.11-1.015.332-.222.222-.332.528-.332.918 0 .267.048.497.146.689.101.189.249.335.444.44.199.1.445.15.738.15h1.552v.938zm-1.494-.547l-1.65 3.213h-1.318l1.669-3.213h1.299zm11.5-3.896v7.109h-1.22v-7.11h1.22zm4.278 0l-2.891 4.052h-1.733l-.166-1.064h1.22l2.071-2.988h1.499zm-1.25 7.109l-2.3-3.242.791-.943 2.978 4.185h-1.469zm8.185-3.75v.39c0 .538-.07 1.02-.21 1.446-.14.426-.34.79-.6 1.089a2.58 2.58 0 01-.928.688 2.994 2.994 0 01-1.201.235c-.437 0-.835-.078-1.197-.235a2.679 2.679 0 01-.932-.688 3.183 3.183 0 01-.615-1.089 4.505 4.505 0 01-.215-1.445v-.391c0-.537.071-1.017.215-1.44.143-.427.345-.79.605-1.09.264-.302.575-.532.933-.688A2.92 2.92 0 01143.42 29c.439 0 .84.08 1.201.24.361.155.672.385.933.688.26.3.46.662.6 1.089.144.423.215.903.215 1.44zm-1.225.39v-.4c0-.397-.04-.747-.118-1.05a2.152 2.152 0 00-.337-.766 1.404 1.404 0 00-.542-.469 1.6 1.6 0 00-.727-.161c-.27 0-.511.054-.723.161-.211.104-.392.26-.542.469-.146.205-.259.46-.337.767a4.228 4.228 0 00-.117 1.05v.4c0 .397.039.748.117 1.054.078.306.192.565.342.777.153.208.335.366.547.473.212.105.453.157.723.157.273 0 .516-.052.727-.157.212-.107.391-.265.537-.473.147-.212.257-.47.332-.777a4.28 4.28 0 00.118-1.054zm3.449-3.749h1.094l2.055 5.483 2.051-5.483h1.094l-2.715 7.109h-.869l-2.71-7.11zm-.498 0h1.04l.18 4.746v2.363h-1.22v-7.11zm6.25 0h1.045v7.109h-1.226v-2.363l.181-4.746zm8.625 0v7.109h-1.221v-6.133h-3.159v6.133h-1.221v-7.11h5.601zm4.743.947l-2.124 6.162h-1.284l2.675-7.11h.821l-.088.948zm1.777 6.162l-2.129-6.162-.092-.947h.825l2.685 7.109h-1.289zm-.102-2.637v.972h-3.867v-.972h3.867zm7.384-1.504v.972h-3.774v-.972h3.774zm-3.471-2.968v7.109h-1.226v-7.11h1.226zm4.414 0v7.109h-1.221v-7.11h1.221zm3.171 5.112l3.154-5.112h1.226v7.109h-1.226V31.09l-3.154 5.117h-1.221v-7.11h1.221v5.113zm10.202-.669h-1.958l-.484-.2c-.537-.17-.948-.427-1.235-.772-.286-.345-.43-.78-.43-1.303 0-.47.105-.865.313-1.187.208-.322.505-.566.889-.732.387-.166.844-.25 1.372-.25h2.387v7.11h-1.23v-6.133h-1.157c-.456 0-.795.11-1.016.332-.221.222-.332.528-.332.918 0 .267.049.497.147.689.1.189.249.335.444.44.198.1.444.15.737.15h1.553v.938zm-1.494-.547l-1.651 3.213h-1.318l1.67-3.213h1.299zm5.514-3.896l-.117 5.014h-1.006l-.122-5.014h1.245zm-1.279 6.552a.62.62 0 01.176-.449c.12-.123.286-.185.498-.185.208 0 .373.062.493.185.121.12.181.27.181.45 0 .172-.06.32-.181.444-.12.12-.285.18-.493.18-.212 0-.378-.06-.498-.18a.624.624 0 01-.176-.445zM56.505 15.25v.703c0 .967-.126 1.834-.378 2.602-.252.767-.612 1.42-1.081 1.96a4.652 4.652 0 01-1.67 1.239c-.65.281-1.371.422-2.162.422-.785 0-1.503-.14-2.154-.422a4.836 4.836 0 01-1.678-1.24c-.475-.538-.844-1.192-1.108-1.96-.257-.767-.386-1.634-.386-2.6v-.704c0-.967.129-1.831.386-2.593.258-.767.621-1.42 1.09-1.96a4.693 4.693 0 011.679-1.239 5.274 5.274 0 012.153-.43c.791 0 1.512.143 2.162.43a4.6 4.6 0 011.68 1.24c.468.538.828 1.192 1.08 1.96.258.76.387 1.625.387 2.592zm-2.206.703v-.72c0-.715-.07-1.345-.211-1.89-.135-.551-.337-1.011-.607-1.38a2.535 2.535 0 00-.975-.844 2.89 2.89 0 00-1.31-.29c-.486 0-.92.097-1.3.29a2.632 2.632 0 00-.976.844c-.264.369-.466.829-.607 1.38-.14.545-.21 1.175-.21 1.89v.72c0 .715.07 1.348.21 1.899.141.55.346 1.016.616 1.397.275.375.603.66.984.853.38.187.815.28 1.3.28.493 0 .93-.093 1.31-.28a2.63 2.63 0 00.967-.853c.264-.38.463-.847.598-1.397.14-.551.21-1.184.21-1.899zm15.516-.703v.703c0 .967-.126 1.834-.378 2.602-.252.767-.612 1.42-1.08 1.96a4.66 4.66 0 01-1.67 1.239c-.651.281-1.372.422-2.163.422-.785 0-1.503-.14-2.153-.422a4.836 4.836 0 01-1.679-1.24c-.475-.538-.844-1.192-1.107-1.96-.258-.767-.387-1.634-.387-2.6v-.704c0-.967.129-1.831.387-2.593.257-.767.62-1.42 1.09-1.96a4.694 4.694 0 011.678-1.239 5.274 5.274 0 012.153-.43c.791 0 1.512.143 2.163.43.65.281 1.21.694 1.678 1.24.469.538.83 1.192 1.081 1.96.258.76.387 1.625.387 2.592zm-2.206.703v-.72c0-.715-.07-1.345-.211-1.89-.135-.551-.337-1.011-.606-1.38a2.536 2.536 0 00-.976-.844 2.889 2.889 0 00-1.31-.29c-.486 0-.92.097-1.3.29a2.632 2.632 0 00-.976.844c-.264.369-.466.829-.606 1.38-.141.545-.211 1.175-.211 1.89v.72c0 .715.07 1.348.21 1.899.141.55.346 1.016.616 1.397.275.375.603.66.984.853.381.187.815.28 1.301.28.492 0 .929-.093 1.31-.28a2.63 2.63 0 00.966-.853c.264-.38.463-.847.598-1.397.14-.551.211-1.184.211-1.899zm15.516-.703v.703c0 .967-.126 1.834-.378 2.602-.252.767-.612 1.42-1.08 1.96a4.66 4.66 0 01-1.67 1.239c-.651.281-1.372.422-2.163.422-.785 0-1.503-.14-2.153-.422a4.837 4.837 0 01-1.679-1.24c-.474-.538-.844-1.192-1.107-1.96-.258-.767-.387-1.634-.387-2.6v-.704c0-.967.129-1.831.387-2.593.258-.767.62-1.42 1.09-1.96a4.693 4.693 0 011.678-1.239 5.274 5.274 0 012.154-.43c.79 0 1.511.143 2.162.43.65.281 1.21.694 1.678 1.24.47.538.83 1.192 1.082 1.96.257.76.386 1.625.386 2.592zm-2.206.703v-.72c0-.715-.07-1.345-.21-1.89-.136-.551-.338-1.011-.607-1.38a2.536 2.536 0 00-.976-.844 2.889 2.889 0 00-1.31-.29c-.486 0-.92.097-1.3.29a2.632 2.632 0 00-.976.844c-.263.369-.466.829-.606 1.38-.14.545-.211 1.175-.211 1.89v.72c0 .715.07 1.348.21 1.899.141.55.346 1.016.616 1.397.275.375.603.66.984.853.381.187.815.28 1.301.28.492 0 .929-.093 1.31-.28a2.63 2.63 0 00.966-.853c.264-.38.463-.847.598-1.397.14-.551.211-1.184.211-1.899zm15.555 1.274h-3.331V15.48h3.331c.58 0 1.049-.094 1.406-.282.358-.187.618-.445.782-.773.17-.334.255-.715.255-1.143 0-.404-.085-.782-.255-1.133a1.943 1.943 0 00-.782-.862c-.357-.217-.826-.325-1.406-.325H93.82V22h-2.206V9.203h4.86c.99 0 1.831.176 2.522.527.698.346 1.228.827 1.591 1.442.364.61.545 1.306.545 2.092 0 .826-.181 1.535-.545 2.127-.363.591-.893 1.045-1.59 1.362-.692.316-1.533.474-2.523.474zm15.912 3.024V22h-6.794v-1.749h6.794zm-6.17-11.048V22h-2.206V9.203h2.206zm5.282 5.344v1.723h-5.906v-1.723h5.906zm.844-5.344v1.758h-6.75V9.203h6.75zm10.928 0v1.758h-5.941V22h-2.198V9.203h8.139zm4.917 9.202l5.677-9.202h2.207V22h-2.207v-9.21L128.187 22h-2.198V9.203h2.198v9.202zm21.633-3.155v.703c0 .967-.126 1.834-.378 2.602-.252.767-.612 1.42-1.081 1.96a4.644 4.644 0 01-1.67 1.239c-.65.281-1.371.422-2.162.422-.785 0-1.503-.14-2.153-.422a4.837 4.837 0 01-1.679-1.24c-.475-.538-.844-1.192-1.107-1.96-.258-.767-.387-1.634-.387-2.6v-.704c0-.967.129-1.831.387-2.593.257-.767.621-1.42 1.089-1.96a4.703 4.703 0 011.679-1.239 5.276 5.276 0 012.154-.43c.791 0 1.511.143 2.162.43.65.281 1.21.694 1.678 1.24.469.538.829 1.192 1.081 1.96.258.76.387 1.625.387 2.592zm-2.206.703v-.72c0-.715-.07-1.345-.211-1.89-.135-.551-.337-1.011-.606-1.38a2.537 2.537 0 00-.976-.844 2.888 2.888 0 00-1.309-.29c-.487 0-.92.097-1.301.29a2.626 2.626 0 00-.976.844c-.264.369-.466.829-.606 1.38-.141.545-.211 1.175-.211 1.89v.72c0 .715.07 1.348.211 1.899.14.55.345 1.016.615 1.397.275.375.603.66.984.853a2.91 2.91 0 001.301.28 2.93 2.93 0 001.31-.28c.381-.194.703-.478.966-.853.264-.38.463-.847.598-1.397.141-.551.211-1.184.211-1.899zm13.767-1.406v1.749h-6.794v-1.75h6.794zm-6.249-5.344V22h-2.206V9.203h2.206zm7.946 0V22h-2.198V9.203h2.198zm17.391 8.236v1.687h-9.228l-.07-1.274 5.519-8.649h1.696l-1.837 3.147-3.172 5.089h7.092zm-1.599-8.236V22h-2.118V9.203h2.118zm12.255 5.327v2.091c0 1.002-.099 1.858-.299 2.567-.193.703-.474 1.274-.843 1.713-.37.44-.812.762-1.328.967a4.553 4.553 0 01-1.713.308c-.504 0-.973-.065-1.407-.194a3.444 3.444 0 01-1.16-.606 3.619 3.619 0 01-.887-1.064c-.241-.439-.428-.963-.563-1.573-.129-.61-.193-1.315-.193-2.118V14.53c0-1.008.099-1.857.298-2.549.2-.697.484-1.262.853-1.696a3.25 3.25 0 011.318-.958 4.753 4.753 0 011.723-.299c.51 0 .979.065 1.406.194.434.123.821.319 1.16.589.346.27.639.62.879 1.054.246.428.434.946.563 1.556.129.603.193 1.307.193 2.11zm-2.118 2.39v-2.707c0-.51-.029-.958-.088-1.345a3.923 3.923 0 00-.264-.993 1.973 1.973 0 00-.421-.668 1.491 1.491 0 00-.58-.378 2.051 2.051 0 00-.73-.123 1.94 1.94 0 00-.879.193 1.58 1.58 0 00-.65.598c-.176.276-.311.639-.405 1.09a8.631 8.631 0 00-.131 1.626v2.707c0 .515.029.97.087 1.362.059.393.147.73.264 1.011.117.275.258.504.422.686.17.175.363.304.58.386.223.082.466.123.73.123.334 0 .629-.064.887-.193a1.63 1.63 0 00.651-.615c.175-.287.307-.66.395-1.116a8.827 8.827 0 00.132-1.644z" fill="#FFBF00"/><defs><clipPath id="clip0_39_7"><path fill="#fff" d="M0 0h39.019v46H0z"/></clipPath></defs></svg>