<svg width="260" height="260" viewBox="0 0 260 260" fill="none" xmlns="http://www.w3.org/2000/svg">
<rect width="260" height="260" rx="80" fill="black"/>
<path d="M102.361 131.909H76.324C76.1394 129.755 75.647 127.8 74.8468 126.046C74.0774 124.292 73.0002 122.784 71.6152 121.522C70.2611 120.229 68.6145 119.245 66.6756 118.567C64.7367 117.86 62.5362 117.506 60.074 117.506C55.7653 117.506 52.1183 118.552 49.133 120.645C46.1784 122.738 43.9318 125.738 42.3929 129.647C40.8849 133.556 40.1309 138.249 40.1309 143.727C40.1309 149.513 40.9003 154.361 42.4391 158.269C44.0087 162.147 46.2708 165.071 49.2253 167.04C52.1799 168.979 55.7346 169.949 59.8894 169.949C62.2592 169.949 64.3828 169.656 66.2601 169.072C68.1375 168.456 69.7686 167.579 71.1536 166.44C72.5385 165.302 73.6619 163.932 74.5236 162.332C75.4161 160.701 76.0163 158.869 76.324 156.838L102.361 157.023C102.053 161.024 100.93 165.102 98.9909 169.256C97.052 173.38 94.2975 177.197 90.7274 180.705C87.1881 184.183 82.8025 186.984 77.5705 189.107C72.3385 191.231 66.2601 192.293 59.3354 192.293C50.6564 192.293 42.87 190.431 35.976 186.707C29.1129 182.983 23.6808 177.504 19.6799 170.272C15.7097 163.04 13.7246 154.191 13.7246 143.727C13.7246 133.202 15.7559 124.338 19.8184 117.136C23.8809 109.904 29.3591 104.441 36.253 100.748C43.147 97.0239 50.8411 95.1619 59.3354 95.1619C65.3061 95.1619 70.7997 95.9775 75.8162 97.6087C80.8328 99.2398 85.2338 101.625 89.0194 104.764C92.8049 107.873 95.8517 111.704 98.16 116.259C100.468 120.814 101.869 126.031 102.361 131.909Z" fill="white"/>
<path d="M138.012 191L110.128 96.4545H138.75L151.676 154.622H152.415L167.742 96.4545H190.27L205.597 154.807H206.336L219.262 96.4545H247.884L220 191H195.441L179.375 138.187H178.637L162.571 191H138.012Z" fill="white"/>
</svg>
