<svg width="260" height="260" viewBox="0 0 260 260" fill="none" xmlns="http://www.w3.org/2000/svg">
<rect width="260" height="260" rx="80" fill="#5C62EC"/>
<path d="M109.215 182L101.519 156.84H63.0387L55.3428 182H31.2188L68.5148 75.884H95.8948L133.339 182H109.215ZM96.1908 138.044L88.4948 113.476C88.0014 111.799 87.3601 109.677 86.5708 107.112C85.7814 104.547 84.9921 101.932 84.2028 99.268C83.4134 96.604 82.7721 94.2853 82.2788 92.312C81.7854 94.2853 81.0947 96.752 80.2068 99.712C79.4174 102.573 78.6281 105.336 77.8388 108C77.1481 110.565 76.6054 112.391 76.2108 113.476L68.6628 138.044H96.1908Z" fill="white"/>
<path d="M146.722 182V76.328H213.47V94.828H169.07V116.88H177.95C187.916 116.88 196.056 118.261 202.37 121.024C208.784 123.787 213.52 127.585 216.578 132.42C219.637 137.255 221.166 142.78 221.166 148.996C221.166 159.455 217.664 167.595 210.658 173.416C203.752 179.139 192.701 182 177.506 182H146.722ZM169.07 163.648H176.618C183.426 163.648 188.754 162.563 192.602 160.392C196.549 158.221 198.522 154.423 198.522 148.996C198.522 143.372 196.401 139.672 192.158 137.896C187.916 136.12 182.144 135.232 174.842 135.232H169.07V163.648Z" fill="white"/>
</svg>
