<svg width="260" height="260" fill="none" xmlns="http://www.w3.org/2000/svg"><rect width="260" height="260" rx="80" fill="#D1A954"/><path d="M92.022 122.533h39.942v67.016c-11.318 4.826-23.352 7.238-36.1 7.238-15.19 0-26.896-5.778-35.116-17.335-8.162-11.556-12.242-28.206-12.242-49.95 0-20.968 4.676-37.38 14.029-49.234 9.412-11.855 22.547-17.782 39.405-17.782 10.425 0 20.373 2.68 29.845 8.042l-7.684 19.837c-7.387-4.29-14.297-6.434-20.731-6.434-9.233 0-16.56 4.14-21.981 12.42-5.362 8.221-8.042 19.45-8.042 33.688 0 14.654 1.936 25.883 5.808 33.687 3.931 7.803 9.62 11.705 17.067 11.705 3.931 0 7.923-.506 11.973-1.519v-29.934H92.022v-21.445zM192.011 195h-24.216V85.718h-25.019V64.362h74.254v21.356h-25.019V195z" fill="#fff"/></svg>